STARTFONT 2.1
COMMENT $XConsortium: lubI14.bdf,v 1.9 94/04/02 16:00:59 gildea Exp $
COMMENT  (c) Copyright Bigelow & Holmes 1986, 1985. Lucida is a registered
COMMENT  trademark of Bigelow & Holmes. See LEGAL NOTICE file for terms 
COMMENT  of the license. 
COMMENT  
COMMENT  Translation to ISO8859-2 by Cub Soft;  Petr.Kolar@vslib.cz
COMMENT  
FONT -B&H-LucidaBright-Medium-I-Normal--14-140-75-75-P-80-ISO8859-2
SIZE 14 72 72
FONTBOUNDINGBOX 22 16 -6 -3
STARTPROPERTIES 20
COMMENT Begin LogicalFontDescription
FONTNAME_REGISTRY ""
FOUNDRY "B&H"
FAMILY_NAME "LucidaBright"
WEIGHT_NAME "Medium"
SLANT "I"
SETWIDTH_NAME "Normal"
ADD_STYLE_NAME ""
PIXEL_SIZE 14
POINT_SIZE 140
RESOLUTION_X 75
RESOLUTION_Y 75
SPACING "P"
AVERAGE_WIDTH 80
CHARSET_REGISTRY "ISO8859"
CHARSET_ENCODING "2"
COMMENT END LogicalFontDescription
FONT_ASCENT 13
FONT_DESCENT 3
DEFAULT_CHAR 0
COPYRIGHT "Copyright Bigelow & Holmes 1986, 1985., Copyright 1996 Cub Soft"
FACE_NAME "Lucida Bright Italic"
ENDPROPERTIES
CHARS 191
STARTCHAR space
ENCODING 32
SWIDTH 333 0
DWIDTH 4 0
BBX 1 1 0 0
BITMAP
00
ENDCHAR
STARTCHAR exclam
ENCODING 33
SWIDTH 265 0
DWIDTH 4 0
BBX 3 10 1 0
BITMAP
20
60
60
40
40
40
40
00
00
c0
ENDCHAR
STARTCHAR quotedbl
ENCODING 34
SWIDTH 377 0
DWIDTH 5 0
BBX 4 3 3 7
BITMAP
b0
a0
a0
ENDCHAR
STARTCHAR numbersign
ENCODING 35
SWIDTH 608 0
DWIDTH 9 0
BBX 9 10 1 0
BITMAP
0480
0900
0900
7f80
1200
2400
ff00
4800
4800
9000
ENDCHAR
STARTCHAR dollar
ENCODING 36
SWIDTH 608 0
DWIDTH 9 0
BBX 6 13 2 -2
BITMAP
08
3c
74
54
50
30
18
2c
ac
a8
f0
40
40
ENDCHAR
STARTCHAR percent
ENCODING 37
SWIDTH 759 0
DWIDTH 11 0
BBX 9 10 2 0
BITMAP
3080
4900
4a00
5400
7400
0b00
1480
2480
4500
8700
ENDCHAR
STARTCHAR ampersand
ENCODING 38
SWIDTH 727 0
DWIDTH 10 0
BBX 9 10 1 0
BITMAP
0c00
1200
3200
1c00
3000
5b80
8900
8e00
c400
7f00
ENDCHAR
STARTCHAR apostrophe
ENCODING 39
SWIDTH 265 0
DWIDTH 4 0
BBX 3 4 2 6
BITMAP
60
60
40
c0
ENDCHAR
STARTCHAR parenleft
ENCODING 40
SWIDTH 310 0
DWIDTH 4 0
BBX 5 13 1 -3
BITMAP
18
20
20
40
40
c0
80
80
80
80
80
80
40
ENDCHAR
STARTCHAR parenright
ENCODING 41
SWIDTH 310 0
DWIDTH 4 0
BBX 5 13 0 -3
BITMAP
10
10
10
10
18
18
10
10
10
20
20
40
80
ENDCHAR
STARTCHAR asterisk
ENCODING 42
SWIDTH 458 0
DWIDTH 6 0
BBX 6 5 2 5
BITMAP
20
a4
58
60
90
ENDCHAR
STARTCHAR plus
ENCODING 43
SWIDTH 608 0
DWIDTH 9 0
BBX 8 8 1 0
BITMAP
08
08
08
08
ff
10
10
10
ENDCHAR
STARTCHAR comma
ENCODING 44
SWIDTH 265 0
DWIDTH 4 0
BBX 2 5 1 -3
BITMAP
40
c0
40
80
80
ENDCHAR
STARTCHAR minus
ENCODING 45
SWIDTH 608 0
DWIDTH 9 0
BBX 8 1 1 3
BITMAP
ff
ENDCHAR
STARTCHAR period
ENCODING 46
SWIDTH 265 0
DWIDTH 4 0
BBX 2 2 1 0
BITMAP
c0
c0
ENDCHAR
STARTCHAR slash
ENCODING 47
SWIDTH 458 0
DWIDTH 6 0
BBX 9 13 0 -3
BITMAP
0080
0100
0200
0200
0400
0400
0800
1000
1000
2000
4000
4000
8000
ENDCHAR
STARTCHAR zero
ENCODING 48
SWIDTH 608 0
DWIDTH 9 0
BBX 8 10 2 0
BITMAP
1c
22
62
43
c2
82
86
84
cc
78
ENDCHAR
STARTCHAR one
ENCODING 49
SWIDTH 608 0
DWIDTH 9 0
BBX 5 10 2 0
BITMAP
38
18
10
10
10
10
30
20
20
f8
ENDCHAR
STARTCHAR two
ENCODING 50
SWIDTH 608 0
DWIDTH 9 0
BBX 8 10 1 0
BITMAP
1e
23
21
03
06
08
30
40
40
fe
ENDCHAR
STARTCHAR three
ENCODING 51
SWIDTH 608 0
DWIDTH 9 0
BBX 7 10 1 0
BITMAP
3c
22
22
06
38
04
04
84
8c
f8
ENDCHAR
STARTCHAR four
ENCODING 52
SWIDTH 608 0
DWIDTH 9 0
BBX 7 10 1 0
BITMAP
02
0e
14
24
44
84
fe
08
08
1c
ENDCHAR
STARTCHAR five
ENCODING 53
SWIDTH 608 0
DWIDTH 9 0
BBX 8 10 2 0
BITMAP
3f
20
20
78
0c
04
04
84
8c
f0
ENDCHAR
STARTCHAR six
ENCODING 54
SWIDTH 608 0
DWIDTH 9 0
BBX 8 10 2 0
BITMAP
1e
33
62
40
fc
c6
86
86
cc
78
ENDCHAR
STARTCHAR seven
ENCODING 55
SWIDTH 608 0
DWIDTH 9 0
BBX 8 10 2 0
BITMAP
7f
02
02
0c
08
10
20
60
40
c0
ENDCHAR
STARTCHAR eight
ENCODING 56
SWIDTH 608 0
DWIDTH 9 0
BBX 7 10 2 0
BITMAP
1c
26
66
64
38
4c
84
84
cc
78
ENDCHAR
STARTCHAR nine
ENCODING 57
SWIDTH 608 0
DWIDTH 9 0
BBX 8 10 1 0
BITMAP
1c
22
42
43
46
3e
06
84
88
f0
ENDCHAR
STARTCHAR colon
ENCODING 58
SWIDTH 265 0
DWIDTH 4 0
BBX 3 7 1 0
BITMAP
60
60
00
00
00
c0
c0
ENDCHAR
STARTCHAR semicolon
ENCODING 59
SWIDTH 265 0
DWIDTH 4 0
BBX 4 10 0 -3
BITMAP
30
30
00
00
00
00
e0
40
40
c0
ENDCHAR
STARTCHAR less
ENCODING 60
SWIDTH 608 0
DWIDTH 9 0
BBX 9 8 1 0
BITMAP
0080
0300
1c00
e000
6000
1800
0400
0300
ENDCHAR
STARTCHAR equal
ENCODING 61
SWIDTH 608 0
DWIDTH 9 0
BBX 9 4 1 2
BITMAP
ff80
0000
0000
ff80
ENDCHAR
STARTCHAR greater
ENCODING 62
SWIDTH 608 0
DWIDTH 9 0
BBX 9 8 0 0
BITMAP
6000
1800
0400
0300
0380
1c00
6000
8000
ENDCHAR
STARTCHAR question
ENCODING 63
SWIDTH 471 0
DWIDTH 7 0
BBX 6 10 2 0
BITMAP
78
88
8c
18
30
60
40
40
00
c0
ENDCHAR
STARTCHAR at
ENCODING 64
SWIDTH 861 0
DWIDTH 12 0
BBX 11 10 2 0
BITMAP
0f80
3040
4f20
5120
9220
9220
b640
9b80
4200
3c00
ENDCHAR
STARTCHAR A
ENCODING 65
SWIDTH 747 0
DWIDTH 10 0
BBX 10 10 0 0
BITMAP
0200
0300
0700
0900
0900
1100
3f80
2180
4180
e3c0
ENDCHAR
STARTCHAR B
ENCODING 66
SWIDTH 606 0
DWIDTH 8 0
BBX 9 10 0 0
BITMAP
3f00
1980
1080
1100
1e00
3200
2100
2100
6300
fe00
ENDCHAR
STARTCHAR C
ENCODING 67
SWIDTH 714 0
DWIDTH 10 0
BBX 9 10 2 0
BITMAP
0f80
3080
6080
4000
c000
c000
c000
c000
6100
3e00
ENDCHAR
STARTCHAR D
ENCODING 68
SWIDTH 770 0
DWIDTH 11 0
BBX 11 10 0 0
BITMAP
3f80
18c0
1060
1060
3060
3060
2040
20c0
6180
fe00
ENDCHAR
STARTCHAR E
ENCODING 69
SWIDTH 569 0
DWIDTH 8 0
BBX 9 10 0 0
BITMAP
3f80
1880
1000
1200
3e00
3200
2000
2000
6100
fe00
ENDCHAR
STARTCHAR F
ENCODING 70
SWIDTH 551 0
DWIDTH 8 0
BBX 9 10 0 0
BITMAP
3f80
1880
1000
1200
3e00
3200
2000
2000
6000
f000
ENDCHAR
STARTCHAR G
ENCODING 71
SWIDTH 756 0
DWIDTH 11 0
BBX 9 10 2 0
BITMAP
1f80
3080
6080
4000
c000
c780
c300
c200
6200
3e00
ENDCHAR
STARTCHAR H
ENCODING 72
SWIDTH 776 0
DWIDTH 11 0
BBX 12 10 0 0
BITMAP
3cf0
1860
1040
1040
3fc0
30c0
2080
2080
6180
f3c0
ENDCHAR
STARTCHAR I
ENCODING 73
SWIDTH 325 0
DWIDTH 5 0
BBX 6 10 0 0
BITMAP
3c
18
10
10
30
30
20
20
60
f0
ENDCHAR
STARTCHAR J
ENCODING 74
SWIDTH 422 0
DWIDTH 6 0
BBX 8 13 0 -3
BITMAP
0f
06
04
04
0c
0c
0c
08
08
18
18
90
e0
ENDCHAR
STARTCHAR K
ENCODING 75
SWIDTH 698 0
DWIDTH 10 0
BBX 11 10 0 0
BITMAP
3ce0
18c0
1100
1600
3c00
3c00
2600
2300
6180
f3c0
ENDCHAR
STARTCHAR L
ENCODING 76
SWIDTH 572 0
DWIDTH 8 0
BBX 8 10 0 0
BITMAP
3c
18
10
10
30
30
20
20
61
ff
ENDCHAR
STARTCHAR M
ENCODING 77
SWIDTH 865 0
DWIDTH 12 0
BBX 13 10 1 0
BITMAP
3838
1870
1860
28a0
2da0
2d60
2640
2640
4040
e1e0
ENDCHAR
STARTCHAR N
ENCODING 78
SWIDTH 762 0
DWIDTH 11 0
BBX 12 10 0 0
BITMAP
3070
1820
1840
2c40
2640
2240
2340
2140
4180
e080
ENDCHAR
STARTCHAR O
ENCODING 79
SWIDTH 783 0
DWIDTH 11 0
BBX 10 10 2 0
BITMAP
0f00
3180
60c0
40c0
c0c0
c0c0
c080
c100
4300
3c00
ENDCHAR
STARTCHAR P
ENCODING 80
SWIDTH 579 0
DWIDTH 8 0
BBX 9 10 0 0
BITMAP
3f00
1980
1180
1180
3300
3e00
2000
2000
6000
f000
ENDCHAR
STARTCHAR Q
ENCODING 81
SWIDTH 788 0
DWIDTH 11 0
BBX 11 13 2 -3
BITMAP
0f00
3180
60c0
40c0
c0c0
c0c0
c080
c180
4300
3e00
0400
0600
01e0
ENDCHAR
STARTCHAR R
ENCODING 82
SWIDTH 686 0
DWIDTH 10 0
BBX 9 10 0 0
BITMAP
3f00
1180
1180
3100
3200
3c00
2600
2200
6300
f180
ENDCHAR
STARTCHAR S
ENCODING 83
SWIDTH 549 0
DWIDTH 8 0
BBX 8 10 1 0
BITMAP
1e
33
22
20
38
0c
04
86
8c
f8
ENDCHAR
STARTCHAR T
ENCODING 84
SWIDTH 663 0
DWIDTH 9 0
BBX 9 10 2 0
BITMAP
ff80
8880
0800
1800
1800
1000
1000
3000
3000
7800
ENDCHAR
STARTCHAR U
ENCODING 85
SWIDTH 727 0
DWIDTH 10 0
BBX 10 10 2 0
BITMAP
f1c0
6080
4100
4100
4100
c100
8100
8200
c600
7c00
ENDCHAR
STARTCHAR V
ENCODING 86
SWIDTH 656 0
DWIDTH 9 0
BBX 10 10 2 0
BITMAP
f1c0
4080
6180
6100
2200
2600
2400
3800
3800
1000
ENDCHAR
STARTCHAR W
ENCODING 87
SWIDTH 878 0
DWIDTH 12 0
BBX 13 10 2 0
BITMAP
f238
4210
4620
4620
4a40
6b40
7380
7380
6300
4300
ENDCHAR
STARTCHAR X
ENCODING 88
SWIDTH 624 0
DWIDTH 9 0
BBX 11 10 0 0
BITMAP
3ce0
1840
0880
0f00
0600
0600
0a00
1300
6100
e380
ENDCHAR
STARTCHAR Y
ENCODING 89
SWIDTH 663 0
DWIDTH 9 0
BBX 9 10 2 0
BITMAP
f380
6100
6200
2400
3800
1800
1000
3000
3000
7800
ENDCHAR
STARTCHAR Z
ENCODING 90
SWIDTH 633 0
DWIDTH 9 0
BBX 9 10 1 0
BITMAP
3f80
2100
0200
0600
0c00
1800
3000
2000
4100
fe00
ENDCHAR
STARTCHAR bracketleft
ENCODING 91
SWIDTH 310 0
DWIDTH 4 0
BBX 5 13 1 -3
BITMAP
38
20
20
20
20
60
40
40
40
40
c0
80
e0
ENDCHAR
STARTCHAR backslash
ENCODING 92
SWIDTH 458 0
DWIDTH 6 0
BBX 4 13 2 -3
BITMAP
80
80
40
40
40
40
40
20
20
20
20
10
10
ENDCHAR
STARTCHAR bracketright
ENCODING 93
SWIDTH 310 0
DWIDTH 4 0
BBX 5 13 0 -3
BITMAP
38
08
18
10
10
10
10
30
20
20
20
20
e0
ENDCHAR
STARTCHAR asciicircum
ENCODING 94
SWIDTH 608 0
DWIDTH 9 0
BBX 8 8 1 2
BITMAP
04
04
0c
12
22
22
41
81
ENDCHAR
STARTCHAR underscore
ENCODING 95
SWIDTH 500 0
DWIDTH 7 0
BBX 6 1 1 -2
BITMAP
fc
ENDCHAR
STARTCHAR grave
ENCODING 96
SWIDTH 560 0
DWIDTH 8 0
BBX 3 2 4 8
BITMAP
c0
20
ENDCHAR
STARTCHAR a
ENCODING 97
SWIDTH 608 0
DWIDTH 9 0
BBX 8 7 1 0
BITMAP
1f
23
42
c2
86
9e
f7
ENDCHAR
STARTCHAR b
ENCODING 98
SWIDTH 596 0
DWIDTH 8 0
BBX 8 10 1 0
BITMAP
70
20
20
27
79
71
63
42
c4
f8
ENDCHAR
STARTCHAR c
ENCODING 99
SWIDTH 487 0
DWIDTH 7 0
BBX 6 7 1 0
BITMAP
1c
64
44
80
80
c4
78
ENDCHAR
STARTCHAR d
ENCODING 100
SWIDTH 608 0
DWIDTH 9 0
BBX 8 10 1 0
BITMAP
07
03
02
1e
22
42
c6
8c
94
e6
ENDCHAR
STARTCHAR e
ENCODING 101
SWIDTH 518 0
DWIDTH 7 0
BBX 6 7 1 0
BITMAP
1c
64
44
f8
80
cc
78
ENDCHAR
STARTCHAR f
ENCODING 102
SWIDTH 380 0
DWIDTH 5 0
BBX 7 14 1 -3
BITMAP
0e
12
12
20
7c
20
20
60
60
40
40
40
c0
80
ENDCHAR
STARTCHAR g
ENCODING 103
SWIDTH 602 0
DWIDTH 8 0
BBX 8 10 1 -3
BITMAP
1f
23
22
42
46
4a
76
04
84
f8
ENDCHAR
STARTCHAR h
ENCODING 104
SWIDTH 631 0
DWIDTH 9 0
BBX 7 10 2 0
BITMAP
60
20
20
6e
56
66
44
44
c4
8e
ENDCHAR
STARTCHAR i
ENCODING 105
SWIDTH 289 0
DWIDTH 4 0
BBX 3 10 2 0
BITMAP
20
00
00
e0
40
40
40
40
80
c0
ENDCHAR
STARTCHAR j
ENCODING 106
SWIDTH 343 0
DWIDTH 5 0
BBX 7 13 0 -3
BITMAP
06
00
00
0c
04
04
0c
0c
08
08
98
90
e0
ENDCHAR
STARTCHAR k
ENCODING 107
SWIDTH 560 0
DWIDTH 8 0
BBX 7 10 1 0
BITMAP
60
20
20
66
6c
50
70
58
cc
8e
ENDCHAR
STARTCHAR l
ENCODING 108
SWIDTH 289 0
DWIDTH 4 0
BBX 4 10 1 0
BITMAP
70
30
20
20
60
60
40
40
c0
e0
ENDCHAR
STARTCHAR m
ENCODING 109
SWIDTH 944 0
DWIDTH 13 0
BBX 12 7 1 0
BITMAP
ee70
7bb0
7330
6620
4620
c420
8470
ENDCHAR
STARTCHAR n
ENCODING 110
SWIDTH 631 0
DWIDTH 9 0
BBX 7 7 2 0
BITMAP
ee
56
66
44
44
c4
8e
ENDCHAR
STARTCHAR o
ENCODING 111
SWIDTH 560 0
DWIDTH 8 0
BBX 7 7 1 0
BITMAP
1c
66
46
c6
c4
cc
70
ENDCHAR
STARTCHAR p
ENCODING 112
SWIDTH 608 0
DWIDTH 9 0
BBX 8 10 1 -3
BITMAP
67
39
71
63
42
44
78
c0
c0
80
ENDCHAR
STARTCHAR q
ENCODING 113
SWIDTH 599 0
DWIDTH 8 0
BBX 8 10 1 -3
BITMAP
1f
23
42
c2
c6
9e
f6
04
04
04
ENDCHAR
STARTCHAR r
ENCODING 114
SWIDTH 470 0
DWIDTH 7 0
BBX 6 7 2 0
BITMAP
ec
54
60
60
40
c0
80
ENDCHAR
STARTCHAR s
ENCODING 115
SWIDTH 440 0
DWIDTH 6 0
BBX 5 7 1 0
BITMAP
38
48
68
30
90
90
f0
ENDCHAR
STARTCHAR t
ENCODING 116
SWIDTH 355 0
DWIDTH 5 0
BBX 4 9 2 0
BITMAP
60
40
f0
40
40
c0
c0
80
e0
ENDCHAR
STARTCHAR u
ENCODING 117
SWIDTH 630 0
DWIDTH 9 0
BBX 7 7 2 0
BITMAP
ee
46
46
44
cc
d4
ee
ENDCHAR
STARTCHAR v
ENCODING 118
SWIDTH 558 0
DWIDTH 8 0
BBX 8 7 1 0
BITMAP
e3
61
22
36
3c
18
10
ENDCHAR
STARTCHAR w
ENCODING 119
SWIDTH 805 0
DWIDTH 11 0
BBX 11 7 1 0
BITMAP
c260
6620
2660
2ac0
3a80
3300
2300
ENDCHAR
STARTCHAR x
ENCODING 120
SWIDTH 510 0
DWIDTH 7 0
BBX 7 7 1 0
BITMAP
66
26
38
18
68
cc
86
ENDCHAR
STARTCHAR y
ENCODING 121
SWIDTH 558 0
DWIDTH 8 0
BBX 9 10 0 -3
BITMAP
6180
3180
1100
1200
1600
1400
1800
1000
2000
c000
ENDCHAR
STARTCHAR z
ENCODING 122
SWIDTH 536 0
DWIDTH 8 0
BBX 7 7 1 0
BITMAP
3e
44
08
10
20
44
fc
ENDCHAR
STARTCHAR braceleft
ENCODING 123
SWIDTH 337 0
DWIDTH 5 0
BBX 5 13 1 -3
BITMAP
18
30
20
20
20
20
c0
40
40
c0
80
80
40
ENDCHAR
STARTCHAR bar
ENCODING 124
SWIDTH 241 0
DWIDTH 3 0
BBX 3 13 1 -3
BITMAP
20
20
20
40
40
40
40
40
40
40
80
80
80
ENDCHAR
STARTCHAR braceright
ENCODING 125
SWIDTH 337 0
DWIDTH 5 0
BBX 5 13 1 -3
BITMAP
30
08
18
10
10
10
18
20
20
20
20
60
c0
ENDCHAR
STARTCHAR asciitilde
ENCODING 126
SWIDTH 608 0
DWIDTH 9 0
BBX 9 3 1 2
BITMAP
7080
9880
8700
ENDCHAR
STARTCHAR nobreakspace
ENCODING 160
SWIDTH 333 0
DWIDTH 4 0
BBX 1 1 0 0
BITMAP
00
ENDCHAR
STARTCHAR Aogonek
ENCODING 161
SWIDTH 747 0
DWIDTH 10 0
BBX 10 12 0 -2
BITMAP
0200
0300
0700
0900
0900
1100
3f80
2180
4180
e3c0
0c00
0c00
ENDCHAR
STARTCHAR breve
ENCODING 162
SWIDTH 560 0
DWIDTH 8 0
BBX 5 2 4 8
BITMAP
88
f0
ENDCHAR
STARTCHAR Lstroke
ENCODING 163
SWIDTH 572 0
DWIDTH 8 0
BBX 8 10 0 0
BITMAP
3c
18
10
14
3c
70
70
20
61
ff
ENDCHAR
STARTCHAR currency
ENCODING 164
SWIDTH 608 0
DWIDTH 9 0
BBX 10 10 1 0
BITMAP
4000
20c0
2f80
1300
2100
2100
2100
2200
5f00
8100
ENDCHAR
STARTCHAR Lcaron
ENCODING 165
SWIDTH 714 0
DWIDTH 10 0
BBX 10 11 0 0
BITMAP
00c0
3cc0
1880
1180
1000
3000
3000
2000
2000
6100
ff00
ENDCHAR
STARTCHAR Sacute
ENCODING 166
SWIDTH 549 0
DWIDTH 8 0
BBX 8 13 1 0
BITMAP
03
04
00
1e
33
22
20
38
0c
04
86
8c
f8
ENDCHAR
STARTCHAR section
ENCODING 167
SWIDTH 608 0
DWIDTH 9 0
BBX 8 13 1 -3
BITMAP
1f
31
20
20
38
4c
42
72
1c
04
84
8c
f8
ENDCHAR
STARTCHAR diaeresis
ENCODING 168
SWIDTH 560 0
DWIDTH 8 0
BBX 4 1 4 9
BITMAP
90
ENDCHAR
STARTCHAR Scaron
ENCODING 169
SWIDTH 549 0
DWIDTH 8 0
BBX 8 13 1 0
BITMAP
09
06
00
1e
33
22
20
38
0c
04
86
8c
f8
ENDCHAR
STARTCHAR Scedilla
ENCODING 170
SWIDTH 549 0
DWIDTH 8 0
BBX 8 13 1 -3
BITMAP
1e
33
22
20
38
0c
04
86
8c
f8
08
08
18
ENDCHAR
STARTCHAR Tcaron
ENCODING 171
SWIDTH 663 0
DWIDTH 9 0
BBX 9 13 2 0
BITMAP
1200
0c00
0000
ff80
8880
0800
1800
1800
1000
1000
3000
3000
7800
ENDCHAR
STARTCHAR Zacute
ENCODING 172
SWIDTH 633 0
DWIDTH 9 0
BBX 9 13 1 0
BITMAP
0300
0400
0000
3f80
2100
0200
0600
0c00
1800
3000
2000
4100
fe00
ENDCHAR
STARTCHAR hyphen
ENCODING 173
SWIDTH 313 0
DWIDTH 4 0
BBX 3 1 2 4
BITMAP
e0
ENDCHAR
STARTCHAR Zcaron
ENCODING 174
SWIDTH 633 0
DWIDTH 9 0
BBX 9 13 1 0
BITMAP
0900
0600
0000
3f80
2100
0200
0600
0c00
1800
3000
2000
4100
fe00
ENDCHAR
STARTCHAR Zabovedot
ENCODING 175
SWIDTH 633 0
DWIDTH 9 0
BBX 9 12 1 0
BITMAP
0600
0000
3f80
2100
0200
0600
0c00
1800
3000
2000
4100
fe00
ENDCHAR
STARTCHAR degree
ENCODING 176
SWIDTH 277 0
DWIDTH 4 0
BBX 2 2 3 8
BITMAP
c0
c0
ENDCHAR
STARTCHAR aogonek
ENCODING 177
SWIDTH 608 0
DWIDTH 9 0
BBX 8 9 1 -2
BITMAP
1f
23
42
c2
86
9e
f7
18
18
ENDCHAR
STARTCHAR ogonek
ENCODING 178
SWIDTH 560 0
DWIDTH 8 0
BBX 2 2 2 -3
BITMAP
c0
c0
ENDCHAR
STARTCHAR lstroke
ENCODING 179
SWIDTH 289 0
DWIDTH 4 0
BBX 5 10 1 0
BITMAP
70
10
30
30
38
e0
60
60
40
70
ENDCHAR
STARTCHAR acute
ENCODING 180
SWIDTH 560 0
DWIDTH 8 0
BBX 3 2 5 8
BITMAP
60
80
ENDCHAR
STARTCHAR lcaron
ENCODING 181
SWIDTH 571 0
DWIDTH 8 0
BBX 8 11 1 0
BITMAP
03
73
32
26
20
60
60
40
40
c0
e0
ENDCHAR
STARTCHAR sacute
ENCODING 182
SWIDTH 440 0
DWIDTH 6 0
BBX 5 10 1 0
BITMAP
18
20
00
38
48
68
30
90
90
f0
ENDCHAR
STARTCHAR caron
ENCODING 183
SWIDTH 560 0
DWIDTH 8 0
BBX 4 2 4 8
BITMAP
90
60
ENDCHAR
STARTCHAR cedilla
ENCODING 184
SWIDTH 560 0
DWIDTH 8 0
BBX 2 3 2 -3
BITMAP
40
40
c0
ENDCHAR
STARTCHAR scaron
ENCODING 185
SWIDTH 440 0
DWIDTH 6 0
BBX 5 10 1 0
BITMAP
48
30
00
38
48
68
30
90
90
f0
ENDCHAR
STARTCHAR scedilla
ENCODING 186
SWIDTH 440 0
DWIDTH 6 0
BBX 5 10 1 -3
BITMAP
38
48
68
30
90
90
f0
10
10
30
ENDCHAR
STARTCHAR tcaron
ENCODING 187
SWIDTH 355 0
DWIDTH 5 0
BBX 4 14 2 0
BITMAP
30
30
20
60
00
60
40
f0
40
40
c0
c0
80
e0
ENDCHAR
STARTCHAR zacute
ENCODING 188
SWIDTH 536 0
DWIDTH 8 0
BBX 7 10 1 0
BITMAP
0c
10
00
3e
44
08
10
20
44
fc
ENDCHAR
STARTCHAR doubleacute
ENCODING 189
SWIDTH 560 0
DWIDTH 8 0
BBX 5 2 4 8
BITMAP
78
a0
ENDCHAR
STARTCHAR zcaron
ENCODING 190
SWIDTH 536 0
DWIDTH 8 0
BBX 7 10 1 0
BITMAP
24
18
00
3e
44
08
10
20
44
fc
ENDCHAR
STARTCHAR zabovedot
ENCODING 191
SWIDTH 536 0
DWIDTH 8 0
BBX 7 9 1 0
BITMAP
18
00
3e
44
08
10
20
44
fc
ENDCHAR
STARTCHAR Racute
ENCODING 192
SWIDTH 686 0
DWIDTH 10 0
BBX 9 13 0 0
BITMAP
0300
0400
0000
3f00
1180
1180
3100
3200
3c00
2600
2200
6300
f180
ENDCHAR
STARTCHAR Aacute
ENCODING 193
SWIDTH 747 0
DWIDTH 10 0
BBX 10 13 0 0
BITMAP
0180
0200
0000
0200
0300
0700
0900
0900
1100
3f80
2180
4180
e3c0
ENDCHAR
STARTCHAR Acircumflex
ENCODING 194
SWIDTH 747 0
DWIDTH 10 0
BBX 10 13 0 0
BITMAP
0300
0480
0000
0200
0300
0700
0900
0900
1100
3f80
2180
4180
e3c0
ENDCHAR
STARTCHAR Abreve
ENCODING 195
SWIDTH 747 0
DWIDTH 10 0
BBX 11 13 0 0
BITMAP
0220
03c0
0000
0200
0300
0700
0900
0900
1100
3f80
2180
4180
e3c0
ENDCHAR
STARTCHAR Adiaeresis
ENCODING 196
SWIDTH 747 0
DWIDTH 10 0
BBX 10 12 0 0
BITMAP
0480
0000
0200
0300
0700
0900
0900
1100
3f80
2180
4180
e3c0
ENDCHAR
STARTCHAR Lacute
ENCODING 197
SWIDTH 572 0
DWIDTH 8 0
BBX 8 13 0 0
BITMAP
06
08
00
3c
18
10
10
30
30
20
20
61
ff
ENDCHAR
STARTCHAR Cacute
ENCODING 198
SWIDTH 714 0
DWIDTH 10 0
BBX 9 13 2 0
BITMAP
0300
0400
0000
0f80
3080
6080
4000
c000
c000
c000
c000
6100
3e00
ENDCHAR
STARTCHAR Ccedilla
ENCODING 199
SWIDTH 714 0
DWIDTH 10 0
BBX 9 13 2 -3
BITMAP
0f80
3080
6080
4000
c000
c000
c000
c000
6100
3e00
1000
1000
3000
ENDCHAR
STARTCHAR Ccaron
ENCODING 200
SWIDTH 714 0
DWIDTH 10 0
BBX 9 13 2 0
BITMAP
0900
0600
0000
0f80
3080
6080
4000
c000
c000
c000
c000
6100
3e00
ENDCHAR
STARTCHAR Eacute
ENCODING 201
SWIDTH 569 0
DWIDTH 8 0
BBX 9 13 0 0
BITMAP
0300
0400
0000
3f80
1880
1000
1200
3e00
3200
2000
2000
6100
fe00
ENDCHAR
STARTCHAR Eogonek
ENCODING 202
SWIDTH 569 0
DWIDTH 8 0
BBX 9 12 0 -2
BITMAP
3f80
1880
1000
1200
3e00
3200
2000
2000
6100
fe00
0c00
0c00
ENDCHAR
STARTCHAR Ediaeresis
ENCODING 203
SWIDTH 569 0
DWIDTH 8 0
BBX 9 12 0 0
BITMAP
0900
0000
3f80
1880
1000
1200
3e00
3200
2000
2000
6100
fe00
ENDCHAR
STARTCHAR Ecaron
ENCODING 204
SWIDTH 569 0
DWIDTH 8 0
BBX 9 13 0 0
BITMAP
0900
0600
0000
3f80
1880
1000
1200
3e00
3200
2000
2000
6100
fe00
ENDCHAR
STARTCHAR Iacute
ENCODING 205
SWIDTH 325 0
DWIDTH 5 0
BBX 6 13 0 0
BITMAP
0c
10
00
3c
18
10
10
30
30
20
20
60
f0
ENDCHAR
STARTCHAR Icircumflex
ENCODING 206
SWIDTH 325 0
DWIDTH 5 0
BBX 6 13 0 0
BITMAP
18
24
00
3c
18
10
10
30
30
20
20
60
f0
ENDCHAR
STARTCHAR Dcaron
ENCODING 207
SWIDTH 770 0
DWIDTH 11 0
BBX 11 13 0 0
BITMAP
0480
0300
0000
3f80
18c0
1060
1060
3060
3060
2040
20c0
6180
fe00
ENDCHAR
STARTCHAR Dstroke
ENCODING 208
SWIDTH 770 0
DWIDTH 11 0
BBX 11 10 0 0
BITMAP
3f80
10c0
1060
1060
7c60
3060
2040
20c0
6180
fe00
ENDCHAR
STARTCHAR Nacute
ENCODING 209
SWIDTH 762 0
DWIDTH 11 0
BBX 12 13 0 0
BITMAP
00c0
0100
0000
3070
1820
1840
2c40
2640
2240
2340
2140
4180
e080
ENDCHAR
STARTCHAR Ncaron
ENCODING 210
SWIDTH 762 0
DWIDTH 11 0
BBX 12 13 0 0
BITMAP
0240
0180
0000
3070
1820
1840
2c40
2640
2240
2340
2140
4180
e080
ENDCHAR
STARTCHAR Oacute
ENCODING 211
SWIDTH 783 0
DWIDTH 11 0
BBX 10 13 2 0
BITMAP
0300
0400
0000
0f00
3180
60c0
40c0
c0c0
c0c0
c080
c100
4300
3c00
ENDCHAR
STARTCHAR Ocircumflex
ENCODING 212
SWIDTH 783 0
DWIDTH 11 0
BBX 10 13 2 0
BITMAP
0600
0900
0000
0f00
3180
60c0
40c0
c0c0
c0c0
c080
c100
4300
3c00
ENDCHAR
STARTCHAR Odoubleacute
ENCODING 213
SWIDTH 783 0
DWIDTH 11 0
BBX 10 13 2 0
BITMAP
0780
0a00
0000
0f00
3180
60c0
40c0
c0c0
c0c0
c080
c100
4300
3c00
ENDCHAR
STARTCHAR Odiaeresis
ENCODING 214
SWIDTH 783 0
DWIDTH 11 0
BBX 10 12 2 0
BITMAP
0900
0000
0f00
3180
60c0
40c0
c0c0
c0c0
c080
c100
4300
3c00
ENDCHAR
STARTCHAR multiply
ENCODING 215
SWIDTH 608 0
DWIDTH 9 0
BBX 9 8 1 0
BITMAP
4080
2100
1200
1c00
1c00
2400
4200
8100
ENDCHAR
STARTCHAR Rcaron
ENCODING 216
SWIDTH 686 0
DWIDTH 10 0
BBX 9 13 0 0
BITMAP
0900
0600
0000
3f00
1180
1180
3100
3200
3c00
2600
2200
6300
f180
ENDCHAR
STARTCHAR Uring
ENCODING 217
SWIDTH 727 0
DWIDTH 10 0
BBX 10 13 2 0
BITMAP
0600
0600
0000
f1c0
6080
4100
4100
4100
c100
8100
8200
c600
7c00
ENDCHAR
STARTCHAR Uacute
ENCODING 218
SWIDTH 727 0
DWIDTH 10 0
BBX 10 13 2 0
BITMAP
0300
0400
0000
f1c0
6080
4100
4100
4100
c100
8100
8200
c600
7c00
ENDCHAR
STARTCHAR Udoubleacute
ENCODING 219
SWIDTH 727 0
DWIDTH 10 0
BBX 10 13 2 0
BITMAP
0780
0a00
0000
f1c0
6080
4100
4100
4100
c100
8100
8200
c600
7c00
ENDCHAR
STARTCHAR Udiaeresis
ENCODING 220
SWIDTH 727 0
DWIDTH 10 0
BBX 10 12 2 0
BITMAP
1200
0000
f1c0
6080
4100
4100
4100
c100
8100
8200
c600
7c00
ENDCHAR
STARTCHAR Yacute
ENCODING 221
SWIDTH 663 0
DWIDTH 9 0
BBX 9 13 2 0
BITMAP
0600
0800
0000
f380
6100
6200
2400
3800
1800
1000
3000
3000
7800
ENDCHAR
STARTCHAR Tcedilla
ENCODING 222
SWIDTH 663 0
DWIDTH 9 0
BBX 9 13 2 -3
BITMAP
ff80
8880
0800
1800
1800
1000
1000
3000
3000
7800
0400
0400
0c00
ENDCHAR
STARTCHAR ssharp
ENCODING 223
SWIDTH 603 0
DWIDTH 8 0
BBX 8 14 1 -3
BITMAP
1e
12
32
24
28
28
6c
62
42
53
5c
c0
c0
80
ENDCHAR
STARTCHAR racute
ENCODING 224
SWIDTH 470 0
DWIDTH 7 0
BBX 6 10 2 0
BITMAP
18
20
00
ec
54
60
60
40
c0
80
ENDCHAR
STARTCHAR aacute
ENCODING 225
SWIDTH 608 0
DWIDTH 9 0
BBX 8 10 1 0
BITMAP
03
04
00
1f
23
42
c2
86
9e
f7
ENDCHAR
STARTCHAR acircumflex
ENCODING 226
SWIDTH 608 0
DWIDTH 9 0
BBX 8 10 1 0
BITMAP
0c
12
00
1f
23
42
c2
86
9e
f7
ENDCHAR
STARTCHAR abreve
ENCODING 227
SWIDTH 608 0
DWIDTH 9 0
BBX 8 10 1 0
BITMAP
11
1e
00
1f
23
42
c2
86
9e
f7
ENDCHAR
STARTCHAR adiaeresis
ENCODING 228
SWIDTH 608 0
DWIDTH 9 0
BBX 8 9 1 0
BITMAP
09
00
1f
23
42
c2
86
9e
f7
ENDCHAR
STARTCHAR lacute
ENCODING 229
SWIDTH 289 0
DWIDTH 4 0
BBX 5 13 1 0
BITMAP
18
20
00
70
30
20
20
60
60
40
40
c0
e0
ENDCHAR
STARTCHAR cacute
ENCODING 230
SWIDTH 487 0
DWIDTH 7 0
BBX 6 10 1 0
BITMAP
0c
10
00
1c
64
44
80
80
c4
78
ENDCHAR
STARTCHAR ccedilla
ENCODING 231
SWIDTH 487 0
DWIDTH 7 0
BBX 6 10 1 -3
BITMAP
1c
64
44
80
80
c4
78
20
20
60
ENDCHAR
STARTCHAR ccaron
ENCODING 232
SWIDTH 487 0
DWIDTH 7 0
BBX 6 10 1 0
BITMAP
24
18
00
1c
64
44
80
80
c4
78
ENDCHAR
STARTCHAR eacute
ENCODING 233
SWIDTH 518 0
DWIDTH 7 0
BBX 7 10 1 0
BITMAP
06
08
00
1c
64
44
f8
80
cc
78
ENDCHAR
STARTCHAR eogonek
ENCODING 234
SWIDTH 518 0
DWIDTH 7 0
BBX 6 9 1 -2
BITMAP
1c
64
44
f8
80
cc
78
30
30
ENDCHAR
STARTCHAR ediaeresis
ENCODING 235
SWIDTH 518 0
DWIDTH 7 0
BBX 7 9 1 0
BITMAP
12
00
1c
64
44
f8
80
cc
78
ENDCHAR
STARTCHAR ecaron
ENCODING 236
SWIDTH 518 0
DWIDTH 7 0
BBX 6 10 1 0
BITMAP
24
18
00
1c
64
44
f8
80
cc
78
ENDCHAR
STARTCHAR iacute
ENCODING 237
SWIDTH 289 0
DWIDTH 4 0
BBX 5 10 1 0
BITMAP
18
20
00
e0
60
40
40
40
c0
e0
ENDCHAR
STARTCHAR icircumflex
ENCODING 238
SWIDTH 289 0
DWIDTH 4 0
BBX 5 10 1 0
BITMAP
30
48
00
e0
60
40
40
40
c0
e0
ENDCHAR
STARTCHAR dcaron
ENCODING 239
SWIDTH 928 0
DWIDTH 13 0
BBX 12 11 1 0
BITMAP
0030
0730
0320
0260
1e00
2200
4200
c600
8c00
9400
e600
ENDCHAR
STARTCHAR dstroke
ENCODING 240
SWIDTH 857 0
DWIDTH 12 0
BBX 11 10 1 0
BITMAP
0100
1fe0
0200
1e00
2200
4200
c600
8c00
9400
e600
ENDCHAR
STARTCHAR nacute
ENCODING 241
SWIDTH 631 0
DWIDTH 9 0
BBX 7 10 2 0
BITMAP
0c
10
00
ee
56
66
44
44
c4
8e
ENDCHAR
STARTCHAR ncaron
ENCODING 242
SWIDTH 631 0
DWIDTH 9 0
BBX 7 10 2 0
BITMAP
24
18
00
ee
56
66
44
44
c4
8e
ENDCHAR
STARTCHAR oacute
ENCODING 243
SWIDTH 560 0
DWIDTH 8 0
BBX 7 10 1 0
BITMAP
06
08
00
1c
66
46
c6
c4
cc
70
ENDCHAR
STARTCHAR ocircumflex
ENCODING 244
SWIDTH 560 0
DWIDTH 8 0
BBX 7 10 1 0
BITMAP
0c
12
00
1c
66
46
c6
c4
cc
70
ENDCHAR
STARTCHAR odoubleacute
ENCODING 245
SWIDTH 560 0
DWIDTH 8 0
BBX 7 10 1 0
BITMAP
1e
28
00
1c
66
46
c6
c4
cc
70
ENDCHAR
STARTCHAR odiaeresis
ENCODING 246
SWIDTH 560 0
DWIDTH 8 0
BBX 7 9 1 0
BITMAP
12
00
1c
66
46
c6
c4
cc
70
ENDCHAR
STARTCHAR division
ENCODING 247
SWIDTH 608 0
DWIDTH 9 0
BBX 8 7 1 0
BITMAP
08
00
00
ff
00
00
10
ENDCHAR
STARTCHAR rcaron
ENCODING 248
SWIDTH 470 0
DWIDTH 7 0
BBX 6 10 2 0
BITMAP
48
30
00
ec
54
60
60
40
c0
80
ENDCHAR
STARTCHAR uring
ENCODING 249
SWIDTH 630 0
DWIDTH 9 0
BBX 7 10 2 0
BITMAP
18
18
00
ee
46
46
44
cc
d4
ee
ENDCHAR
STARTCHAR uacute
ENCODING 250
SWIDTH 630 0
DWIDTH 9 0
BBX 7 10 2 0
BITMAP
06
08
00
ee
46
46
44
cc
d4
ee
ENDCHAR
STARTCHAR udoubleacute
ENCODING 251
SWIDTH 630 0
DWIDTH 9 0
BBX 7 10 2 0
BITMAP
1e
28
00
ee
46
46
44
cc
d4
ee
ENDCHAR
STARTCHAR udiaeresis
ENCODING 252
SWIDTH 630 0
DWIDTH 9 0
BBX 7 9 2 0
BITMAP
12
00
ee
46
46
44
cc
d4
ee
ENDCHAR
STARTCHAR yacute
ENCODING 253
SWIDTH 558 0
DWIDTH 8 0
BBX 9 13 0 -3
BITMAP
0300
0400
0000
6180
3180
1100
1200
1600
1400
1800
1000
2000
c000
ENDCHAR
STARTCHAR tcedilla
ENCODING 254
SWIDTH 355 0
DWIDTH 5 0
BBX 4 12 2 -3
BITMAP
60
40
f0
40
40
c0
c0
80
e0
20
20
60
ENDCHAR
STARTCHAR abovedot
ENCODING 255
SWIDTH 560 0
DWIDTH 8 0
BBX 2 1 5 9
BITMAP
c0
ENDCHAR
ENDFONT
